# 3ds Max Wavefront OBJ Exporter v0.97b - (c)2007 guruware
# File Created: 23.07.2014 19:09:13

mtllib letterE.mtl

#
# object letterE
#

v  -0.2362 0.0000 -0.0492
v  -0.2362 -0.0000 0.0492
v  -0.2362 0.1969 0.0492
v  -0.2362 0.1969 -0.0492
v  0.2362 0.1969 -0.0492
v  0.2362 0.1969 0.0492
v  0.2362 -0.0000 0.0492
v  0.2362 0.0000 -0.0492
v  0.0000 -0.0000 0.0492
v  0.0000 0.0000 -0.0492
v  0.0000 0.1969 -0.0492
v  0.0000 0.1969 0.0492
v  0.1969 0.4331 -0.0492
v  0.1969 0.4331 0.0492
v  0.0000 0.4331 0.0492
v  0.0000 0.4331 -0.0492
v  0.1969 0.6299 -0.0492
v  0.1969 0.6299 0.0492
v  0.0000 0.8268 -0.0492
v  0.0000 0.8268 0.0492
v  0.0000 0.6299 0.0492
v  0.0000 0.6299 -0.0492
v  0.1969 0.8268 -0.0492
v  0.1969 0.8268 0.0492
v  -0.2362 1.0236 -0.0492
v  -0.2362 1.0236 0.0492
v  0.0000 1.0236 0.0492
v  0.0000 1.0236 -0.0492
v  0.1969 1.0236 -0.0492
v  0.1969 1.0236 0.0492
v  -0.2362 0.6299 -0.0492
v  -0.2362 0.6299 0.0492
v  -0.2362 0.8268 0.0492
v  -0.2362 0.8268 -0.0492
v  -0.2362 0.4331 -0.0492
v  -0.2362 0.4331 0.0492
# 36 vertices

vn -1.0000 0.0000 -0.0000
vn 1.0000 0.0000 -0.0000
vn 0.0000 -1.0000 -0.0000
vn 0.0000 1.0000 0.0000
vn 0.0000 0.0000 -1.0000
vn 0.0000 -0.0000 1.0000
# 6 vertex normals

vt 0.2708 0.0000 0.0000
vt 0.2708 1.0000 0.0000
vt 0.2149 1.0000 0.0000
vt 0.2149 0.0000 0.0000
vt 0.4479 0.0000 0.0000
vt 0.4479 1.0000 0.0000
vt 0.3958 1.0000 0.0000
vt 0.3958 0.0000 0.0000
vt 0.3455 1.0000 0.0000
vt 0.3455 0.0000 0.0000
vt 0.5104 0.0000 0.0000
vt 0.5104 1.0000 0.0000
vt 0.6250 0.0000 0.0000
vt 0.6250 1.0000 0.0000
vt 0.5729 1.0000 0.0000
vt 0.5729 0.0000 0.0000
vt 0.6771 0.0000 0.0000
vt 0.6771 1.0000 0.0000
vt 0.7813 0.0000 0.0000
vt 0.7813 1.0000 0.0000
vt 0.7292 1.0000 0.0000
vt 0.7292 0.0000 0.0000
vt 0.8333 0.0000 0.0000
vt 0.8333 1.0000 0.0000
vt 1.0000 0.0000 0.0000
vt 1.0000 1.0000 0.0000
vt 0.9478 1.0000 0.0000
vt 0.9478 0.0000 0.0000
vt 0.8854 0.0000 0.0000
vt 0.8854 1.0000 0.0000
vt 0.5970 0.0000 0.0000
vt 0.5000 0.1923 0.0000
vt 1.0000 0.1923 0.0000
vt 0.4178 1.0000 0.0000
vt 0.5000 0.8077 0.0000
vt 0.9167 0.8077 0.0000
vt 0.9167 1.0000 0.0000
vt 0.1058 0.0000 0.0000
vt 0.1058 1.0000 0.0000
vt 0.0470 1.0000 0.0000
vt 0.0470 0.0000 0.0000
vt 0.1548 0.0000 0.0000
vt 0.1548 1.0000 0.0000
vt 0.0000 1.0000 0.0000
vt 0.0000 0.0000 0.0000
vt -0.0000 0.8265 0.0000
vt -0.0000 0.6094 0.0000
vt 0.5000 0.6154 0.0000
vt -0.0000 1.0000 0.0000
vt 0.5000 0.4231 0.0000
vt 0.9167 0.4231 0.0000
vt 0.9167 0.6154 0.0000
vt -0.0000 0.4286 0.0000
vt -0.0000 0.2065 0.0000
vt -0.0000 0.0000 0.0000
# 55 texture coords

g letterE
usemtl lambert1
s off
f 1/1/1 2/2/1 3/3/1 4/4/1 
f 5/5/2 6/6/2 7/7/2 8/8/2 
f 8/8/3 7/7/3 9/9/3 10/10/3 
f 11/11/4 12/12/4 6/6/4 5/5/4 
f 13/13/3 14/14/3 15/15/3 16/16/3 
f 16/16/2 15/15/2 12/12/2 11/11/2 
f 17/17/2 18/18/2 14/14/2 13/13/2 
f 19/19/2 20/20/2 21/21/2 22/22/2 
f 22/22/4 21/21/4 18/18/4 17/17/4 
f 23/23/3 24/24/3 20/20/3 19/19/3 
f 25/25/4 26/26/4 27/27/4 28/28/4 
f 29/29/2 30/30/2 24/24/2 23/23/2 
f 10/31/5 11/32/5 5/33/5 8/25/5 
f 27/34/6 20/35/6 24/36/6 30/37/6 
f 31/38/1 32/39/1 33/40/1 34/41/1 
f 35/42/1 36/43/1 32/39/1 31/38/1 
f 34/41/1 33/40/1 26/44/1 25/45/1 
f 4/4/1 3/3/1 36/43/1 35/42/1 
f 10/10/3 9/9/3 2/2/3 1/1/3 
f 28/28/4 27/27/4 30/30/4 29/29/4 
f 20/35/6 33/46/6 32/47/6 21/48/6 
f 26/49/6 33/46/6 20/35/6 27/34/6 
f 21/48/6 15/50/6 14/51/6 18/52/6 
f 12/32/6 9/31/6 7/25/6 6/33/6 
f 21/48/6 32/47/6 36/53/6 15/50/6 
f 15/50/6 36/53/6 3/54/6 12/32/6 
f 35/53/5 16/50/5 11/32/5 4/54/5 
f 4/54/5 11/32/5 10/31/5 1/55/5 
f 16/50/5 22/48/5 17/52/5 13/51/5 
f 34/46/5 19/35/5 22/48/5 31/47/5 
f 31/47/5 22/48/5 16/50/5 35/53/5 
f 19/35/5 28/34/5 29/37/5 23/36/5 
f 25/49/5 28/34/5 19/35/5 34/46/5 
f 12/32/6 3/54/6 2/55/6 9/31/6 
# 34 polygons

